HIERARCHY
ROOT RootJoint
{
    OFFSET   0.000000   0.000000   0.000000
    CHANNELS 6 Xposition Yposition Zposition Xrotation Yrotation Zrotation
    JOINT pelvis_lowerback
    {
        OFFSET   0.000000   0.093605   0.000000
        CHANNELS 3 Xrotation Yrotation Zrotation
        JOINT lowerback_torso
        {
            OFFSET   0.000000   0.100000   0.000000
            CHANNELS 3 Xrotation Yrotation Zrotation
            JOINT torso_head
            {
                OFFSET   0.000000   0.282350   0.000000
                CHANNELS 3 Xrotation Yrotation Zrotation
                End Site
                {
                    OFFSET   0.000000   0.192650   0.000000
                }
            }
            JOINT rTorso_Clavicle
            {
                OFFSET  -0.001000   0.157500   0.000000
                CHANNELS 3 Xrotation Yrotation Zrotation
                JOINT rShoulder
                {
                    OFFSET  -0.117647   0.000000   0.000000
                    CHANNELS 3 Xrotation Yrotation Zrotation
                    JOINT rElbow
                    {
                        OFFSET  -0.245000   0.000000   0.000000
                        CHANNELS 3 Xrotation Yrotation Zrotation
                        JOINT rWrist
                        {
                            OFFSET  -0.240000   0.000000   0.000000
                            CHANNELS 3 Xrotation Yrotation Zrotation
                            End Site
                            {
                                OFFSET  -0.116353  -0.002500   0.000000
                            }
                        }
                    }
                }
            }
            JOINT lTorso_Clavicle
            {
                OFFSET   0.001000   0.157500   0.000000
                CHANNELS 3 Xrotation Yrotation Zrotation
                JOINT lShoulder
                {
                    OFFSET   0.117647   0.000000   0.000000
                    CHANNELS 3 Xrotation Yrotation Zrotation
                    JOINT lElbow
                    {
                        OFFSET   0.245000   0.000000   0.000000
                        CHANNELS 3 Xrotation Yrotation Zrotation
                        JOINT lWrist
                        {
                            OFFSET   0.240000   0.000000   0.000000
                            CHANNELS 3 Xrotation Yrotation Zrotation
                            End Site
                            {
                                OFFSET   0.116353  -0.002500   0.000000
                            }
                        }
                    }
                }
            }
        }
    }
    JOINT rHip
    {
        OFFSET  -0.100000  -0.051395   0.000000
        CHANNELS 3 Xrotation Yrotation Zrotation
        JOINT rKnee
        {
            OFFSET   0.000000  -0.410000   0.000000
            CHANNELS 3 Xrotation Yrotation Zrotation
            JOINT rAnkle
            {
                OFFSET   0.000000  -0.390000   0.000000
                CHANNELS 3 Xrotation Yrotation Zrotation
                JOINT rToeJoint
                {
                    OFFSET   0.000000  -0.050000   0.130000
                    CHANNELS 3 Xrotation Yrotation Zrotation
                    End Site
                    {
                        OFFSET  -0.010000   0.002000   0.060000
                    }
                }
            }
        }
    }
    JOINT lHip
    {
        OFFSET   0.100000  -0.051395   0.000000
        CHANNELS 3 Xrotation Yrotation Zrotation
        JOINT lKnee
        {
            OFFSET   0.000000  -0.410000   0.000000
            CHANNELS 3 Xrotation Yrotation Zrotation
            JOINT lAnkle
            {
                OFFSET   0.000000  -0.390000   0.000000
                CHANNELS 3 Xrotation Yrotation Zrotation
                JOINT lToeJoint
                {
                    OFFSET   0.000000  -0.050000   0.130000
                    CHANNELS 3 Xrotation Yrotation Zrotation
                    End Site
                    {
                        OFFSET   0.010000   0.002000   0.060000
                    }
                }
            }
        }
    }
}
MOTION
Frames: 7
Frame Time:   0.008333
 -2.297019   0.849019   3.947204  -4.920440  -0.647350  -3.887989   8.603046  -6.797330  -1.283718   1.750607  -9.714108   5.049191   3.157313  -9.922309   3.242398  -6.499152  -3.379458  -2.202498 -34.534736 -14.243386  33.474417 179.999924  69.776864 -179.999058  -3.297740   8.505193  -1.747089  -2.524875  -7.700688   4.615013 -27.982437 -27.158038 -57.155898 -179.999034 -62.442643 -179.994604  -1.067350 -10.026597   0.924852 -23.413931 -11.485128 -24.173639  31.653046  -0.004475   0.001496  17.399677  -1.180223  12.122677 -27.809140  -0.003487   0.002391  -6.011593   8.523787  21.001187  41.407191  -0.002797  -0.000407 -27.872575   0.705071  -1.348530  -6.623561  -0.003167   0.003947
 -2.293721   0.849352   3.945729  -5.021093  -0.533995  -3.939077   8.737315  -6.679409  -1.332749   1.814314  -9.734285   5.147758   3.195791  -9.972329   3.344516  -6.413593  -3.528764  -2.011871 -34.368548 -14.519765  33.810915 179.999816  69.890832 -179.999555  -3.359945   8.619075  -1.600220  -2.395360  -7.467566   4.641980 -27.604152 -27.168365 -57.545240 179.999575 -62.746927 -179.995484  -1.001219 -10.022205   0.844025 -23.174412 -11.602306 -24.326253  30.958153  -0.004709   0.001450  18.482117  -1.009466  12.433273 -25.596095  -0.004791   0.000081  -5.910441   8.570179  20.805750  41.281233  -0.002537  -0.000282 -28.412372   0.753806  -1.175702  -5.770485  -0.001860   0.004209
 -2.290529   0.850058   3.944257  -5.078934  -0.364783  -3.965142   8.837786  -6.587460  -1.403108   1.878075  -9.771707   5.244869   3.230067 -10.017588   3.441461  -6.310896  -3.738344  -1.804331 -34.187222 -14.828776  34.123102 179.999747  70.008437 -179.999925  -3.423958   8.657874  -1.512752  -2.233624  -7.207123   4.660315 -27.205056 -27.157520 -57.904298 179.998291 -63.045537 -179.996404  -0.941637 -10.019074   0.789804 -22.898714 -11.745193 -24.470361  30.181305  -0.004995   0.000996  19.581043  -0.891687  12.643121 -26.715327  -0.003753   0.000420  -5.835035   8.635559  20.585202  41.044812  -0.002674  -0.000259 -28.800712   0.800417  -0.979000  -4.996515  -0.001020   0.004761
 -2.287430   0.850919   3.942732  -5.111735  -0.166821  -3.986347   8.930378  -6.508565  -1.469036   1.939040  -9.815655   5.336261   3.261728 -10.059446   3.530684  -6.207965  -3.964002  -1.608397 -34.010765 -15.135669  34.407140 179.999757  70.124360 179.999768  -3.486532   8.643394  -1.468892  -2.075122  -6.944908   4.681824 -26.819212 -27.138342 -58.230364 179.997292 -63.328483 -179.997281  -0.885352 -10.016907   0.761201 -22.635649 -11.886918 -24.610178  29.394988  -0.005238   0.000370  20.639736  -0.803922  12.822131 -27.278885  -0.003130   0.000383  -5.783454   8.701852  20.364111  40.761337  -0.002948  -0.000317 -29.110719   0.841191  -0.780490  -4.286406  -0.000403   0.005255
 -2.284438   0.851831   3.941165  -5.132432   0.053417  -4.009156   9.021492  -6.439797  -1.528499   1.999714  -9.861907   5.422658   3.293055 -10.098315   3.613738  -6.109831  -4.187845  -1.429763 -33.844258 -15.428471  34.666754 179.999834  70.235279 179.999505  -3.546892   8.603710  -1.448880  -1.928199  -6.692370   4.707579 -26.456513 -27.117506 -58.528854 179.996554 -63.593993 -179.998088  -0.831550 -10.015327   0.748958 -22.389630 -12.020650 -24.745849  28.635754  -0.005395  -0.000321  21.655965  -0.728124  12.978522 -27.412288  -0.002560   0.000280  -5.749679   8.763772  20.152887  40.459278  -0.003236  -0.000434 -29.375035   0.877545  -0.587782  -3.635065   0.000063   0.005645
 -2.281569   0.852739   3.939575  -5.147499   0.292331  -4.034583   9.111056  -6.378860  -1.583953   2.059880  -9.908300   5.503225   3.324330 -10.134459   3.691345  -6.017691  -4.402739  -1.267723 -33.688397 -15.703510  34.905683 179.999947  70.339751 179.999282  -3.604827   8.554754  -1.440465  -1.793592  -6.453691   4.735968 -26.118459 -27.097757 -58.804141 179.996015 -63.842216 -179.998830  -0.780014 -10.014080   0.745247 -22.158558 -12.145848 -24.877720  27.915718  -0.005456  -0.001003  22.627078  -0.659749  13.116206 -27.235920  -0.001948   0.000295  -5.729889   8.820295  19.955087  40.153346  -0.003482  -0.000588 -29.610585   0.910865  -0.404000  -3.037780   0.000411   0.005931
 -2.278835   0.853613   3.937980  -5.160246   0.546692  -4.062141   9.197690  -6.323698  -1.638087   2.118273  -9.953322   5.576803   3.355110 -10.168089   3.763809  -5.931643  -4.605904  -1.120298 -33.542776 -15.960173  35.126785 -179.999927  70.437412 179.999101  -3.660327   8.504114  -1.437259  -1.670244  -6.229771   4.765367 -25.803993 -27.079938 -59.059206 179.995621 -64.073932 -179.999514  -0.730626 -10.013029   0.745698 -21.939933 -12.263285 -25.006032  27.238502  -0.005423  -0.001630  23.551314  -0.597373  13.237955 -26.845283  -0.001288   0.000473  -5.721444   8.871483  19.771691  39.851785  -0.003662  -0.000762 -29.827111   0.942047  -0.230496  -2.490138   0.000664   0.006118
